<svg width="344" height="236" viewBox="0 0 344 236" fill="none" xmlns="http://www.w3.org/2000/svg">
<path d="M229.318 19.1154C245.382 19.1154 262.402 12.67 275.54 3.539H275.6C282.706 -1.53378 292.321 -1.11602 299.009 4.55356C307.549 11.6555 318.418 17.0863 329.227 19.5929C339.498 21.9801 345.888 32.3047 343.499 42.5696C341.111 52.8345 330.302 59.2203 320.508 56.8331C305.877 53.3716 293.754 46.9262 285.752 41.9131C268.434 51.1635 249.025 57.3105 229.318 57.3105C210.268 57.3105 193.129 51.4022 181.305 46.031C177.781 44.4793 174.676 42.868 171.989 41.4357C169.301 42.868 166.196 44.4793 162.673 46.031C150.848 51.4022 133.709 57.3105 114.659 57.3105C94.4146 57.3105 75.5436 51.1635 58.2254 41.9131C50.2351 46.9262 38.0943 53.3716 23.4514 56.8331C13.1739 59.2203 2.89819 52.8345 0.503006 42.5696C-1.89241 32.3047 4.49803 21.9801 14.7743 19.5929C25.5833 17.0863 36.4043 11.6555 44.9739 4.55356C51.6325 -1.11602 61.271 -1.53378 68.3775 3.539H68.4372C81.6349 12.67 98.5949 19.1154 114.659 19.1154C131.082 19.1154 147.504 12.7894 160.941 3.539C167.569 -1.1757 176.408 -1.1757 183.036 3.539C195.936 12.7894 212.896 19.1154 229.318 19.1154Z" fill="#00587A"/>
<path d="M229.318 76.4487C245.382 76.4487 262.402 70.0033 275.54 60.8723H275.6C282.706 55.7995 292.321 56.2173 299.009 61.8869C307.549 68.9888 318.418 74.4196 329.227 76.9262C339.498 79.3134 345.888 89.638 343.499 99.9029C341.111 110.168 330.302 116.554 320.508 114.166C305.877 110.705 293.754 104.26 285.752 99.2464C268.434 108.497 249.025 114.644 229.318 114.644C210.268 114.644 193.129 108.736 181.305 103.364C177.781 101.813 174.676 100.201 171.989 98.769C169.301 100.201 166.196 101.813 162.673 103.364C150.848 108.736 133.709 114.644 114.659 114.644C94.4146 114.644 75.5436 108.497 58.2254 99.2464C50.2351 104.26 38.0943 110.705 23.4514 114.166C13.1739 116.554 2.89819 110.168 0.503006 99.9029C-1.89241 89.638 4.49803 79.3134 14.7743 76.9262C25.5833 74.4196 36.4043 68.9888 44.9739 61.8869C51.6325 56.2173 61.271 55.7995 68.3775 60.8723H68.4372C81.6349 70.0033 98.5949 76.4487 114.659 76.4487C131.082 76.4487 147.504 70.1227 160.941 60.8723C167.569 56.1576 176.408 56.1576 183.036 60.8723C195.936 70.1227 212.896 76.4487 229.318 76.4487Z" fill="#00587A"/>
<path d="M229.318 133.782C245.382 133.782 262.402 127.337 275.54 118.206H275.6C282.706 113.133 292.321 113.551 299.009 119.22C307.549 126.322 318.418 131.753 329.227 134.26C339.498 136.647 345.888 146.971 343.499 157.236C341.111 167.501 330.302 173.887 320.508 171.5C305.877 168.038 293.754 161.593 285.752 156.58C268.434 165.83 249.025 171.977 229.318 171.977C210.268 171.977 193.129 166.069 181.305 160.698C177.781 159.146 174.676 157.535 171.989 156.102C169.301 157.535 166.196 159.146 162.673 160.698C150.848 166.069 133.709 171.977 114.659 171.977C94.4146 171.977 75.5436 165.83 58.2254 156.58C50.2351 161.593 38.0943 168.038 23.4514 171.5C13.1739 173.887 2.89819 167.501 0.503006 157.236C-1.89241 146.971 4.49803 136.647 14.7743 134.26C25.5833 131.753 36.4043 126.322 44.9739 119.22C51.6325 113.551 61.271 113.133 68.3775 118.206H68.4372C81.6349 127.337 98.5949 133.782 114.659 133.782C131.082 133.782 147.504 127.456 160.941 118.206C167.569 113.491 176.408 113.491 183.036 118.206C195.936 127.456 212.896 133.782 229.318 133.782Z" fill="#00587A"/>
<path d="M229.318 197.305C245.382 197.305 262.402 190.86 275.54 181.729H275.6C282.706 176.656 292.321 177.073 299.009 182.743C307.549 189.845 318.418 195.276 329.227 197.782C339.498 200.17 345.888 210.494 343.499 220.759C341.111 231.024 330.302 237.41 320.508 235.023C305.877 231.561 293.754 225.116 285.752 220.103C268.434 229.353 249.025 235.5 229.318 235.5C210.268 235.5 193.129 229.592 181.305 224.221C177.781 222.669 174.676 221.058 171.989 219.625C169.301 221.058 166.196 222.669 162.673 224.221C150.848 229.592 133.709 235.5 114.659 235.5C94.4146 235.5 75.5436 229.353 58.2254 220.103C50.2351 225.116 38.0943 231.561 23.4514 235.023C13.1739 237.41 2.89818 231.024 0.503004 220.759C-1.89241 210.494 4.49803 200.17 14.7743 197.782C25.5833 195.276 36.4043 189.845 44.9739 182.743C51.6325 177.073 61.271 176.656 68.3775 181.729H68.4372C81.6349 190.86 98.5949 197.305 114.659 197.305C131.082 197.305 147.504 190.979 160.941 181.729C167.569 177.014 176.408 177.014 183.036 181.729C195.936 190.979 212.896 197.305 229.318 197.305Z" fill="#00587A"/>
</svg>
